<svg width="17.133820" height="17.000031" viewBox="0 0 17.1338 17" fill="none" xmlns="http://www.w3.org/2000/svg" xmlns:xlink="http://www.w3.org/1999/xlink">
	<desc>
			Created with Pixso.
	</desc>
	<defs/>
	<path id="Vector" d="M16.64 1.43L13.72 1.43C13.66 1.43 13.61 1.45 13.57 1.5C13.53 1.54 13.5 1.59 13.5 1.65C13.5 1.69 13.51 1.72 13.53 1.75L13.53 3.43C13.53 3.49 13.52 3.55 13.5 3.61C13.47 3.67 13.44 3.72 13.39 3.76C13.35 3.81 13.3 3.84 13.24 3.86C13.19 3.89 13.12 3.9 13.06 3.9L12.16 3.9C12.1 3.9 12.04 3.89 11.99 3.87C11.94 3.84 11.89 3.81 11.85 3.77C11.81 3.73 11.78 3.68 11.75 3.63C11.73 3.58 11.72 3.52 11.72 3.46L11.72 1.78C11.75 1.74 11.77 1.7 11.77 1.65C11.77 1.62 11.76 1.59 11.75 1.57C11.74 1.54 11.72 1.52 11.7 1.5C11.68 1.47 11.66 1.46 11.63 1.45C11.6 1.44 11.58 1.43 11.55 1.43L5.67 1.43C5.61 1.43 5.55 1.45 5.51 1.5C5.47 1.54 5.45 1.59 5.45 1.65C5.45 1.69 5.46 1.72 5.47 1.75L5.47 3.44C5.47 3.5 5.46 3.56 5.44 3.62C5.41 3.67 5.38 3.72 5.34 3.77C5.29 3.81 5.24 3.84 5.19 3.86C5.13 3.89 5.07 3.9 5.01 3.9L4.21 3.9C4.09 3.9 3.97 3.85 3.88 3.76C3.8 3.68 3.75 3.56 3.75 3.44L3.75 1.76C3.77 1.73 3.78 1.69 3.78 1.65C3.78 1.62 3.77 1.59 3.76 1.57C3.75 1.54 3.73 1.52 3.71 1.5C3.69 1.47 3.67 1.46 3.64 1.45C3.62 1.44 3.59 1.43 3.56 1.43L0.48 1.43C0.36 1.43 0.23 1.48 0.14 1.57C0.05 1.67 0 1.79 0 1.92L0 16.5C0 16.78 0.21 17 0.48 17L16.64 17C16.77 16.99 16.89 16.94 16.99 16.85C17.08 16.76 17.13 16.63 17.13 16.5L17.13 1.92C17.13 1.79 17.08 1.67 16.99 1.57C16.89 1.48 16.77 1.43 16.64 1.43ZM16.64 16.55L0.48 16.55C0.48 16.55 0.47 16.55 0.47 16.55C0.46 16.55 0.45 16.54 0.45 16.54C0.45 16.54 0.44 16.53 0.44 16.52C0.44 16.52 0.44 16.51 0.44 16.5L0.44 5.51L16.69 5.51L16.69 16.5C16.69 16.51 16.69 16.52 16.68 16.52C16.68 16.53 16.68 16.53 16.67 16.54C16.67 16.54 16.66 16.55 16.66 16.55C16.65 16.55 16.65 16.55 16.64 16.55Z" fill="#FFFFFF" fill-opacity="1.000000" fill-rule="nonzero"/>
	<path id="Vector" d="M4.67 3.4C4.79 3.4 4.89 3.3 4.89 3.18L4.89 0.22C4.89 0.19 4.88 0.16 4.87 0.13C4.86 0.1 4.84 0.08 4.82 0.06C4.8 0.04 4.78 0.02 4.75 0.01C4.73 0 4.7 0 4.67 0C4.64 0 4.61 0 4.58 0.01C4.56 0.02 4.53 0.04 4.51 0.06C4.49 0.08 4.48 0.1 4.47 0.13C4.45 0.16 4.45 0.19 4.45 0.22L4.45 3.18C4.45 3.3 4.55 3.4 4.67 3.4ZM12.65 3.4C12.77 3.4 12.87 3.3 12.87 3.18L12.87 0.22C12.87 0.19 12.86 0.16 12.85 0.13C12.84 0.1 12.82 0.08 12.8 0.06C12.78 0.04 12.76 0.02 12.73 0.01C12.7 0 12.67 0 12.65 0C12.62 0 12.59 0 12.56 0.01C12.53 0.02 12.51 0.04 12.49 0.06C12.47 0.08 12.45 0.1 12.44 0.13C12.43 0.16 12.43 0.19 12.43 0.22L12.43 3.18C12.43 3.3 12.52 3.4 12.65 3.4Z" fill="#FFFFFF" fill-opacity="1.000000" fill-rule="nonzero"/>
	<path id="Vector" d="M4.74 7.62C4.74 8.29 4.2 8.84 3.53 8.84C2.86 8.84 2.32 8.29 2.32 7.62C2.32 6.95 2.86 6.41 3.53 6.41C4.2 6.41 4.74 6.95 4.74 7.62Z" fill="#FFFFFF" fill-opacity="1.000000" fill-rule="evenodd"/>
	<path id="Vector" d="M8.23 7.62C8.23 8.29 7.69 8.84 7.02 8.84C6.35 8.84 5.8 8.29 5.8 7.62C5.8 6.95 6.35 6.41 7.02 6.41C7.69 6.41 8.23 6.95 8.23 7.62Z" fill="#FFFFFF" fill-opacity="1.000000" fill-rule="evenodd"/>
	<path id="Vector" d="M11.72 7.62C11.72 8.29 11.18 8.84 10.51 8.84C9.84 8.84 9.29 8.29 9.29 7.62C9.29 6.95 9.84 6.41 10.51 6.41C11.18 6.41 11.72 6.95 11.72 7.62Z" fill="#FFFFFF" fill-opacity="1.000000" fill-rule="evenodd"/>
	<path id="Vector" d="M4.74 11C4.74 11.67 4.2 12.22 3.53 12.22C2.86 12.22 2.32 11.67 2.32 11C2.32 10.33 2.86 9.79 3.53 9.79C4.2 9.79 4.74 10.33 4.74 11Z" fill="#FFFFFF" fill-opacity="1.000000" fill-rule="evenodd"/>
	<path id="Vector" d="M8.23 11C8.23 11.67 7.69 12.22 7.02 12.22C6.35 12.22 5.8 11.67 5.8 11C5.8 10.33 6.35 9.79 7.02 9.79C7.69 9.79 8.23 10.33 8.23 11Z" fill="#FFFFFF" fill-opacity="1.000000" fill-rule="evenodd"/>
	<path id="Vector" d="M11.72 11C11.72 11.67 11.18 12.22 10.51 12.22C9.84 12.22 9.29 11.67 9.29 11C9.29 10.33 9.84 9.79 10.51 9.79C11.18 9.79 11.72 10.33 11.72 11Z" fill="#FFFFFF" fill-opacity="1.000000" fill-rule="evenodd"/>
	<path id="Vector" d="M4.74 14.38C4.74 15.05 4.2 15.6 3.53 15.6C2.86 15.6 2.32 15.05 2.32 14.38C2.32 13.71 2.86 13.17 3.53 13.17C4.2 13.17 4.74 13.71 4.74 14.38Z" fill="#FFFFFF" fill-opacity="1.000000" fill-rule="evenodd"/>
	<path id="Vector" d="M8.23 14.38C8.23 15.05 7.69 15.6 7.02 15.6C6.35 15.6 5.8 15.05 5.8 14.38C5.8 13.71 6.35 13.17 7.02 13.17C7.69 13.17 8.23 13.71 8.23 14.38Z" fill="#FFFFFF" fill-opacity="1.000000" fill-rule="evenodd"/>
	<path id="Vector" d="M11.72 14.38C11.72 15.05 11.18 15.6 10.51 15.6C9.84 15.6 9.29 15.05 9.29 14.38C9.29 13.71 9.84 13.17 10.51 13.17C11.18 13.17 11.72 13.71 11.72 14.38Z" fill="#FFFFFF" fill-opacity="1.000000" fill-rule="evenodd"/>
	<path id="Vector" d="M15.13 7.62C15.13 8.29 14.58 8.84 13.91 8.84C13.24 8.84 12.7 8.29 12.7 7.62C12.7 6.95 13.24 6.41 13.91 6.41C14.58 6.41 15.13 6.95 15.13 7.62Z" fill="#FFFFFF" fill-opacity="1.000000" fill-rule="evenodd"/>
	<path id="Vector" d="M15.13 11C15.13 11.67 14.58 12.22 13.91 12.22C13.24 12.22 12.7 11.67 12.7 11C12.7 10.33 13.24 9.79 13.91 9.79C14.58 9.79 15.13 10.33 15.13 11Z" fill="#FFFFFF" fill-opacity="1.000000" fill-rule="evenodd"/>
	<path id="Vector" d="M15.13 14.38C15.13 15.05 14.58 15.6 13.91 15.6C13.24 15.6 12.7 15.05 12.7 14.38C12.7 13.71 13.24 13.17 13.91 13.17C14.58 13.17 15.13 13.71 15.13 14.38Z" fill="#FFFFFF" fill-opacity="1.000000" fill-rule="evenodd"/>
</svg>