<svg width="22.609528" height="8.964844" viewBox="0 0 22.6095 8.96484" fill="none" xmlns="http://www.w3.org/2000/svg" xmlns:xlink="http://www.w3.org/1999/xlink">
	<desc>
			Created with Pixso.
	</desc>
	<defs/>
	<path id="EP 6" d="M20.59 1.41Q20.93 1.69 21.07 2.24L22.33 2.24Q22.27 1.75 22.05 1.34Q21.85 0.96 21.52 0.65Q21.44 0.58 21.36 0.51Q20.7 0 19.63 0Q18.6 0 17.91 0.48Q16.53 1.45 16.53 4.39Q16.53 5.87 16.81 6.87Q17.06 7.75 17.63 8.27Q17.71 8.35 17.8 8.41Q18.5 8.96 19.74 8.96Q20.65 8.96 21.3 8.58Q21.65 8.37 21.91 8.08Q22.12 7.84 22.27 7.54Q22.6 6.88 22.6 6.04Q22.6 5.14 22.26 4.5Q22.03 4.07 21.69 3.77Q21.52 3.62 21.31 3.51Q21.3 3.5 21.29 3.5Q20.7 3.16 19.92 3.16Q19.42 3.16 18.97 3.31Q18.79 3.37 18.62 3.45Q18.17 3.67 17.89 4.01Q17.79 4.13 17.71 4.27Q17.73 2.59 18.2 1.86Q18.39 1.57 18.65 1.4Q19.05 1.13 19.62 1.13Q20.24 1.13 20.59 1.41ZM1.36 4.17L1.36 1.72L4.6 1.72L4.6 0.61L0 0.61L0 8.96L4.6 8.96L4.6 7.84L1.36 7.84L1.36 5.29L4.24 5.29L4.24 4.17L1.36 4.17ZM12.05 3.68Q12.12 3.4 12.12 3.1Q12.12 2.6 11.94 2.17Q11.88 2 11.79 1.85Q11.74 1.78 11.7 1.71Q11.37 1.24 10.79 0.95Q10.12 0.62 9.16 0.62L6.28 0.62L6.28 8.96L7.65 8.96L7.65 5.58L9.16 5.58Q10.19 5.58 10.85 5.22Q11.48 4.88 11.78 4.36Q11.8 4.33 11.81 4.3Q11.98 4 12.05 3.68ZM10.33 4.11Q9.94 4.46 9.16 4.46L7.65 4.46L7.65 1.74L9.16 1.74Q10.03 1.74 10.42 2.17Q10.71 2.5 10.71 3.1Q10.71 3.63 10.46 3.96Q10.4 4.04 10.33 4.11ZM18.73 4.51Q19.12 4.32 19.62 4.32Q20.31 4.32 20.72 4.65Q20.8 4.72 20.87 4.8Q20.9 4.84 20.93 4.88Q21.3 5.35 21.3 6.1Q21.3 6.75 20.99 7.19Q20.93 7.27 20.86 7.35Q20.75 7.47 20.62 7.56Q20.23 7.82 19.66 7.82Q18.94 7.82 18.49 7.47Q18.41 7.41 18.34 7.33Q18.26 7.25 18.19 7.17Q17.86 6.71 17.86 6.02Q17.86 5.37 18.18 4.96Q18.26 4.85 18.37 4.76Q18.54 4.61 18.73 4.51Z" fill="#FFFFFF" fill-opacity="1.000000" fill-rule="evenodd"/>
</svg>
