<svg width="13.300018" height="13.300003" viewBox="0 0 13.3 13.3" fill="none" xmlns="http://www.w3.org/2000/svg" xmlns:xlink="http://www.w3.org/1999/xlink">
	<desc>
			Created with Pixso.
	</desc>
	<defs/>
	<path id="Vector" d="M6.64 0C6.78 0 6.9 0.05 7 0.14C7.09 0.24 7.14 0.36 7.14 0.5L7.14 2.67C7.14 2.8 7.09 2.93 7 3.02C6.9 3.11 6.78 3.17 6.64 3.17C6.51 3.17 6.39 3.11 6.29 3.02C6.2 2.93 6.14 2.8 6.14 2.67L6.14 1.02C4.88 1.13 3.7 1.66 2.78 2.53C1.85 3.4 1.25 4.55 1.06 5.8C0.87 7.05 1.11 8.33 1.73 9.43C2.35 10.53 3.33 11.39 4.5 11.87C5.67 12.35 6.97 12.43 8.19 12.08C9.41 11.73 10.47 10.99 11.22 9.97C11.96 8.94 12.34 7.7 12.29 6.43C12.24 5.17 11.77 3.96 10.95 2.99C10.91 2.94 10.88 2.88 10.85 2.82C10.83 2.76 10.82 2.69 10.83 2.62C10.83 2.56 10.85 2.49 10.88 2.43C10.91 2.37 10.95 2.32 11 2.28C11.05 2.23 11.11 2.2 11.18 2.18C11.24 2.16 11.31 2.15 11.37 2.16C11.44 2.17 11.51 2.19 11.56 2.22C11.62 2.25 11.68 2.29 11.72 2.34C12.7 3.5 13.25 4.96 13.29 6.47C13.33 7.98 12.85 9.47 11.94 10.67C11.02 11.88 9.72 12.73 8.25 13.1C6.78 13.46 5.23 13.32 3.85 12.68C2.48 12.04 1.36 10.96 0.69 9.6C0.01 8.24 -0.18 6.69 0.15 5.21C0.48 3.73 1.3 2.41 2.48 1.46C3.66 0.51 5.13 3.05e-5 6.64 0ZM7.4 7.23L9.92 3.72C9.95 3.67 9.97 3.61 9.96 3.55C9.96 3.49 9.93 3.44 9.89 3.4C9.85 3.36 9.8 3.33 9.74 3.33C9.68 3.32 9.62 3.34 9.57 3.37L6.06 5.89C5.95 5.97 5.86 6.07 5.79 6.19C5.72 6.31 5.68 6.45 5.67 6.59C5.66 6.73 5.68 6.86 5.72 7C5.77 7.13 5.85 7.24 5.95 7.34C6.04 7.44 6.16 7.52 6.29 7.57C6.42 7.61 6.56 7.63 6.7 7.62C6.84 7.61 6.98 7.57 7.1 7.5C7.22 7.43 7.32 7.34 7.4 7.23L7.4 7.23Z" fill="#FFFFFF" fill-opacity="1.000000" fill-rule="evenodd"/>
</svg>